<svg xmlns="http://www.w3.org/2000/svg" width="410" height="404" viewBox="0 0 410 404" fill="none">
  <defs>
    <linearGradient id="paint0_linear" x1="4.5" y1="4" x2="201" y2="197.5" gradientUnits="userSpaceOnUse">
      <stop stop-color="#41D1FF"/>
      <stop offset="1" stop-color="#BD34FE"/>
    </linearGradient>
    <linearGradient id="paint1_linear" x1="173" y1="21" x2="303.5" y2="160.5" gradientUnits="userSpaceOnUse">
      <stop stop-color="#FFEA83"/>
      <stop offset="0.083" stop-color="#FFDD35"/>
      <stop offset="1" stop-color="#FFA800"/>
    </linearGradient>
  </defs>
  <path d="M399.641 59.5246L215.643 388.545C211.923 395.338 202.572 395.254 198.968 388.404L9.35843 59.4698C5.34823 52.0131 12.2457 43.1999 20.4191 45.3569L205.223 94.2325C206.398 94.5468 207.632 94.5466 208.807 94.2319L388.447 45.3803C396.595 43.2025 403.514 52.0086 399.536 59.4708Z" fill="url(#paint0_linear)"/>
  <path d="M292.965 1.5744L156.233 36.0409C154.563 36.4625 153.228 37.7113 152.773 39.3956L113.396 184.711C112.63 187.548 114.776 190.345 117.706 190.345H177.014C179.807 190.345 181.977 187.825 182.359 185.065L189.338 134.955C189.94 130.527 194.37 127.744 198.57 129.227L248.048 146.515C252.833 148.206 257.888 144.14 257.107 139.136L243.133 48.9319C242.445 44.6111 246.206 40.8079 250.469 41.8407L300.063 53.9232C304.86 55.0857 308.889 49.7452 306.511 45.3732L296.513 27.528C294.987 24.7265 291.919 23.1837 288.77 23.9584L262.157 30.5936C258.841 31.4138 255.731 28.7019 256.397 25.3313L259.733 8.3906C260.511 4.55788 257.079 1.22327 253.297 2.13261Z" fill="url(#paint1_linear)"/>
</svg>
